<?xml version="1.0" ?><svg style="enable-background:new 0 0 512 512;" version="1.1" viewBox="0 0 512 512"
    xml:space="preserve" xmlns="http://www.w3.org/2000/svg" xmlns:xlink="http://www.w3.org/1999/xlink">
    <g id="_x34_1_x2C___plane_x2C__prohibit_x2C__travel_x2C__warning">
        <g id="XMLID_2_">
            <path
                d="M401.246,251.139c20.48,0,37.08,16.6,37.08,37.08    c0,20.463-16.588,37.08-37.08,37.08c-20.595,0-37.08-16.71-37.08-37.08C364.166,267.739,380.766,251.139,401.246,251.139z"
                id="XMLID_3277_" style="fill:#E9EFFF;" />
            <path
                d="M115.197,325.298c-20.467,0-37.08-16.591-37.08-37.08    c0-20.16,16.09-36.57,36.12-37.08c0.108,0,2.022,0,1.92,0c20.03,0.51,36.12,16.919,36.12,37.08    C152.277,308.576,135.804,325.298,115.197,325.298z"
                id="XMLID_3275_" style="fill:#E9EFFF;" />
            <path
                d="M401.246,272.918c8.45,0,15.3,6.85,15.3,15.3c0,8.45-6.85,15.29-15.3,15.29    c-8.45,0-15.3-6.84-15.3-15.29C385.947,279.768,392.797,272.918,401.246,272.918z"
                id="XMLID_1926_" style="fill:#A8B7EF;" />
            <path
                d="M115.197,272.918c8.45,0,15.29,6.85,15.29,15.3c0,8.45-6.84,15.29-15.29,15.29    c-8.45,0-15.3-6.84-15.3-15.29C99.896,279.768,106.746,272.918,115.197,272.918z"
                id="XMLID_1925_" style="fill:#A8B7EF;" />
            <path
                d="M273.056,120.999l6.11,51.86c-6.45-4.15-13.43-6.48-20.95-6.48    c-8.43,0-16.18,2.93-23.26,8.06l6.31-53.44H273.056z"
                id="XMLID_1924_" style="fill:#E9EFFF;" />
            <path
                d="M337.856,315.989c0.86,8.149,1.29,15.5,1.29,21.62    c0,56.39-36.23,103.39-80.93,103.39c-44.69,0-80.92-47-80.92-103.39c0-6.091,0.43-13.4,1.28-21.511l78.48,19.9l80.79-20.06    L337.856,315.989z"
                id="XMLID_1923_" style="fill:#D3DCFB;" />
            <path
                d="M234.956,174.438c7.08-5.13,14.83-8.06,23.26-8.06c7.52,0,14.5,2.33,20.95,6.48    c20.55,13.23,35.71,44.9,45.65,78.28h-67.76h-65.43C201.186,219.019,215.576,188.489,234.956,174.438z"
                id="XMLID_1922_" style="fill:#D3DCFB;" />
            <path
                d="M29.376,251.139h84.86c-20.03,0.51-36.12,16.919-36.12,37.08    c0,0.9,0.03,1.79,0.1,2.67l-48.84-7.97V251.139z"
                id="XMLID_1921_" style="fill:#BEC8F7;" />
            <path
                d="M484.947,251.139v31.78l-46.72,7.97c0.07-0.88,0.1-1.77,0.1-2.67    c0-20.48-16.6-37.08-37.08-37.08H484.947z"
                id="XMLID_1920_" style="fill:#A8B7EF;" />
            <path
                d="M401.246,251.139c-20.48,0-37.08,16.6-37.08,37.08c0,7.261,2.09,14.04,5.7,19.761    l-32.02,7.96l-80.79,20.06v-84.86h67.76H401.246z"
                id="XMLID_1919_" style="fill:#A8B7EF;" />
            <path
                d="M178.576,316.098l-32-8.119c3.61-5.721,5.7-12.5,5.7-19.761    c0-20.16-16.09-36.57-36.12-37.08h75.47h65.43v84.86L178.576,316.098z"
                id="XMLID_1918_" style="fill:#BEC8F7;" />
            <path
                d="M437.056,380.999c13.81,0,25,11.19,25,25c0,13.81-11.19,25-25,25    c-13.81,0-25-11.19-25-25C412.056,392.189,423.246,380.999,437.056,380.999z"
                id="XMLID_1917_" style="fill:#70F2A4;" />
            <circle cx="112.056" cy="120.999" id="XMLID_1916_" r="35" style="fill:#70F2A4;" />
            <path
                d="M407.056,30.999c41.42,0,75,33.58,75,75s-33.58,75-75,75s-75-33.58-75-75    S365.637,30.999,407.056,30.999z M453.086,136.119c13.99-21.33,11.61-50.26-7.14-69.01s-47.68-21.13-69.01-7.14L453.086,136.119z     M437.177,152.028l-76.15-76.15c-13.99,21.33-11.61,50.26,7.14,69.01S415.846,166.019,437.177,152.028z"
                id="XMLID_3250_" style="fill:#F07281;" />
            <path
                d="M89.596,466.539c-12.3,0-24.6-4.7-33.99-14.09    c-9.39-9.391-14.09-21.69-14.09-33.99c0-12.31,4.7-24.62,14.09-34c9.39-9.39,21.69-14.08,33.99-14.08c12.31,0,24.62,4.69,34,14.08    c9.39,9.38,14.08,21.69,14.08,34c0,12.3-4.69,24.6-14.08,33.99C114.217,461.838,101.907,466.539,89.596,466.539z"
                id="XMLID_1912_" style="fill:#F07281;" />
            <circle cx="474.556" cy="208.499" id="XMLID_1911_" r="7.5" />
            <path
                d="M455.566,336.069c4.11,0.56,6.98,4.34,6.42,8.44c-0.56,4.11-4.34,6.98-8.44,6.42    c-4.11-0.56-6.98-4.34-6.42-8.44C447.686,338.378,451.467,335.508,455.566,336.069z"
                id="XMLID_1910_" />
            <path
                d="M350.566,441.069c4.11,0.56,6.98,4.34,6.42,8.44c-0.56,4.11-4.34,6.98-8.44,6.42    c-4.11-0.56-6.98-4.34-6.42-8.44C342.686,443.378,346.467,440.508,350.566,441.069z"
                id="XMLID_1909_" />
            <circle cx="319.556" cy="168.499" id="XMLID_1908_" r="7.5" />
            <circle cx="234.556" cy="63.499" id="XMLID_1907_" r="7.5" />
            <circle cx="169.556" cy="193.499" id="XMLID_1906_" r="7.5" />
            <path
                d="M145.566,346.069c4.11,0.56,6.98,4.34,6.42,8.44c-0.56,4.11-4.34,6.98-8.44,6.42    c-4.11-0.56-6.98-4.34-6.42-8.44C137.686,348.378,141.467,345.508,145.566,346.069z"
                id="XMLID_1905_" />
            <circle cx="54.556" cy="193.499" id="XMLID_1904_" r="7.5" />
            <path
                d="M258.217,445.999c-47.376,0-85.92-48.623-85.92-108.39c0-6.335,0.439-13.734,1.303-21.993    c0.001-0.006,0.001-0.012,0.002-0.019c0.2-2.578,2.355-4.608,4.985-4.608c2.761,0,5,2.238,5,5c0,0.16-0.01,0.345-0.027,0.521    c-0.003,0.036-0.006,0.073-0.01,0.11c-0.831,7.929-1.253,14.991-1.253,20.989c0,26.244,8.042,51.021,22.646,69.768    c14.377,18.456,33.297,28.621,53.274,28.621c19.981,0,38.904-10.165,53.283-28.621c14.604-18.746,22.647-43.524,22.647-69.768    c0-5.978-0.436-13.272-1.262-21.095c-0.29-2.747,1.701-5.208,4.447-5.498c2.737-0.286,5.207,1.701,5.497,4.447    c0.874,8.282,1.318,15.733,1.318,22.146C344.146,397.376,305.598,445.999,258.217,445.999z"
                id="XMLID_1903_" />
            <path
                d="M257.053,341c-2.244,0-4.284-1.52-4.849-3.796c-0.666-2.681,0.968-5.393,3.647-6.058l112.809-28.02    c0.395-0.098,0.799-0.147,1.206-0.147c2.761,0,5.005,2.238,5.005,5c0,2.408-1.699,4.42-3.966,4.893l-112.644,27.978    C257.857,340.952,257.451,341,257.053,341z"
                id="XMLID_1902_" />
            <path
                d="M401.246,256.139h-76.43c-2.761,0-5-2.239-5-5.001c0-2.761,2.239-5,5-5h76.43c2.761,0,5,2.239,5,5    C406.246,253.9,404.008,256.139,401.246,256.139z"
                id="XMLID_1901_" />
            <path
                d="M438.221,295.889c-2.393,0-4.507-1.723-4.923-4.16c-0.464-2.722,1.366-5.306,4.088-5.77l42.561-7.261    v-22.561h-78.7c-2.761,0-5-2.238-5-4.999c0-2.761,2.239-5,5-5h83.7c2.761,0,5,2.239,5,5v31.78c0,2.436-1.757,4.519-4.159,4.929    l-46.72,7.97C438.783,295.866,438.499,295.889,438.221,295.889z"
                id="XMLID_1900_" />
            <path
                d="M257.056,340.999c-0.41,0-0.823-0.051-1.229-0.153l-110.377-27.993c-2.221-0.511-3.88-2.499-3.88-4.873    c0-2.762,2.234-5,4.995-5c0.414,0,0.838,0.052,1.24,0.153l104.25,26.44v-78.434c0-2.761,2.239-5,5-5c2.761,0,5,2.239,5,5v84.86    c0,1.543-0.712,2.999-1.93,3.946C259.24,340.635,258.157,340.999,257.056,340.999z"
                id="XMLID_1899_" />
            <path
                d="M191.626,256.139h-76.43c-2.761,0-5-2.239-5-5.001c0-2.761,2.239-5,5-5h76.43c2.761,0,5,2.239,5,5    C196.626,253.9,194.388,256.139,191.626,256.139z"
                id="XMLID_1898_" />
            <path
                d="M78.222,295.889c-0.268,0-0.538-0.022-0.811-0.066l-48.84-7.97c-2.418-0.395-4.195-2.484-4.195-4.935    v-31.78c0-2.761,2.239-5,5-5h85.82c2.761,0,5,2.239,5,5c0,2.761-2.239,4.999-5,4.999h-80.82v22.53l44.645,7.285    c2.726,0.444,4.574,3.015,4.129,5.74C82.751,294.146,80.63,295.889,78.222,295.889z"
                id="XMLID_1897_" />
            <path
                d="M234.956,179.454c-2.761,0-5-2.224-5-4.985c0-0.196,0.012-0.422,0.035-0.617l6.31-53.44    c0.324-2.742,2.811-4.709,5.552-4.379c2.742,0.324,4.703,2.809,4.379,5.552l-6.302,53.375    C239.669,177.479,237.542,179.454,234.956,179.454z"
                id="XMLID_1896_" />
            <path
                d="M279.166,177.869c-2.619,0-4.767-2.004-4.983-4.566l-6.093-51.719c-0.323-2.742,1.638-5.228,4.381-5.551    c2.736-0.328,5.227,1.638,5.551,4.381l6.11,51.86c0.022,0.194,0.034,0.39,0.034,0.585    C284.166,175.62,281.928,177.869,279.166,177.869z"
                id="XMLID_1895_" />
            <path
                d="M324.816,256.139h-133.19c-1.579,0-3.064-0.746-4.008-2.012c-0.943-1.265-1.234-2.902-0.784-4.415    c8.062-27.086,22.445-62.834,45.187-79.322c8.254-5.98,17.067-9.012,26.195-9.012c8.194,0,16.152,2.448,23.655,7.275    c24.131,15.535,39.278,52.654,47.736,81.058c0.451,1.513,0.16,3.15-0.784,4.416C327.881,255.393,326.395,256.139,324.816,256.139z     M198.406,246.139h119.63c-11.072-34.468-25.726-58.872-41.577-69.076c-5.861-3.771-12-5.684-18.243-5.684    c-6.977,0-13.816,2.392-20.327,7.109C222.88,189.37,208.968,213.261,198.406,246.139z"
                id="XMLID_3227_" />
            <path
                d="M297.056,125.999h-80c-2.761,0-5-2.239-5-5s2.239-5,5-5h80c2.761,0,5,2.239,5,5    S299.818,125.999,297.056,125.999z"
                id="XMLID_1892_" />
            <path
                d="M258.947,400.859c-0.766,0-1.532-0.176-2.236-0.528l-40-20c-2.47-1.234-3.471-4.238-2.236-6.708    c1.235-2.471,4.238-3.474,6.708-2.235l37.764,18.882l37.764-18.882c2.467-1.237,5.473-0.234,6.708,2.235    c1.235,2.47,0.234,5.474-2.236,6.708l-40,20C260.479,400.683,259.713,400.859,258.947,400.859z"
                id="XMLID_1891_" />
            <path
                d="M401.246,330.298c-14.542,0-27.854-7.347-35.61-19.653c-4.232-6.707-6.47-14.463-6.47-22.427    c0-23.203,18.877-42.08,42.08-42.08c23.203,0,42.08,18.876,42.08,42.08c0,1.088-0.038,2.092-0.116,3.068    C441.665,313.142,423.231,330.298,401.246,330.298z M401.246,256.139c-17.689,0-32.08,14.391-32.08,32.079    c0,6.072,1.704,11.982,4.929,17.093c5.915,9.386,16.064,14.987,27.151,14.987c16.759,0,30.812-13.073,31.993-29.763    c0.06-0.755,0.087-1.498,0.087-2.317C433.326,270.53,418.935,256.139,401.246,256.139z"
                id="XMLID_3222_" />
            <path
                d="M401.246,308.508c-11.193,0-20.3-9.103-20.3-20.29c0-11.193,9.107-20.3,20.3-20.3    c11.194,0,20.3,9.107,20.3,20.3C421.547,299.406,412.44,308.508,401.246,308.508z M401.246,277.918c-5.679,0-10.3,4.62-10.3,10.3    c0,5.674,4.621,10.29,10.3,10.29c5.68,0,10.3-4.616,10.3-10.29C411.547,282.539,406.926,277.918,401.246,277.918z"
                id="XMLID_3219_" />
            <path
                d="M115.197,330.298c-21.984,0-40.419-17.156-41.967-39.058c-0.075-0.931-0.113-1.935-0.113-3.022    c0-11.051,4.251-21.492,11.971-29.401c7.705-7.895,18.013-12.396,29.022-12.677c0.681-0.021,1.46-0.023,2.207,0.001    c10.977,0.279,21.284,4.781,28.99,12.676c7.719,7.909,11.971,18.35,11.971,29.401c0,7.964-2.238,15.72-6.472,22.429    C143.051,322.952,129.739,330.298,115.197,330.298z M115.064,256.128c-0.223,0-0.445,0.001-0.667,0.008    c-17.263,0.439-31.28,14.831-31.28,32.082c0,0.819,0.027,1.563,0.084,2.271c1.184,16.735,15.237,29.809,31.996,29.809    c11.087,0,21.236-5.602,27.15-14.985c3.226-5.112,4.93-11.022,4.93-17.095c0-17.251-14.018-31.643-31.247-32.081    c-0.3-0.01-0.564-0.009-0.833-0.009C115.152,256.128,115.108,256.128,115.064,256.128z"
                id="XMLID_3216_" />
            <path
                d="M115.197,308.508c-11.194,0-20.3-9.103-20.3-20.29c0-11.193,9.106-20.3,20.3-20.3    c11.188,0,20.29,9.107,20.29,20.3C135.487,299.406,126.385,308.508,115.197,308.508z M115.197,277.918    c-5.68,0-10.3,4.62-10.3,10.3c0,5.674,4.621,10.29,10.3,10.29c5.674,0,10.29-4.616,10.29-10.29    C125.487,282.539,120.87,277.918,115.197,277.918z"
                id="XMLID_3189_" />
            <path
                d="M407.056,185.999c-44.112,0-80-35.888-80-80s35.888-80,80-80s80,35.888,80,80    S451.169,185.999,407.056,185.999z M407.056,35.999c-38.598,0-70,31.402-70,70s31.402,70,70,70s70-31.402,70-70    S445.655,35.999,407.056,35.999z"
                id="XMLID_3186_" />
            <path
                d="M407.061,165.996c-0.002,0-0.003,0-0.005,0c-16.029-0.001-31.096-6.242-42.426-17.571    c-20.004-20.004-23.278-51.667-7.785-75.288c0.825-1.258,2.173-2.078,3.67-2.231c1.497-0.15,2.983,0.375,4.047,1.438l76.15,76.15    c1.064,1.064,1.592,2.55,1.438,4.047c-0.154,1.497-0.973,2.845-2.231,3.67C430.158,162.611,418.795,165.996,407.061,165.996z     M362.121,84.044c-9.222,18.893-5.6,42.128,9.581,57.309c9.441,9.441,21.998,14.642,35.355,14.643c0.001,0,0.003,0,0.004,0    c7.677,0,15.158-1.735,21.952-5.06L362.121,84.044z"
                id="XMLID_3183_" />
            <path
                d="M453.086,141.119c-1.319,0-2.593-0.522-3.535-1.464l-76.15-76.15c-1.064-1.064-1.592-2.55-1.438-4.047    c0.154-1.497,0.973-2.845,2.232-3.67c9.761-6.402,21.124-9.786,32.862-9.786c16.028,0,31.095,6.24,42.426,17.571    c20.004,20.004,23.278,51.667,7.785,75.288c-0.825,1.258-2.173,2.078-3.67,2.231C453.427,141.11,453.256,141.119,453.086,141.119z     M385.1,61.061l66.892,66.892c9.222-18.893,5.6-42.128-9.581-57.309c-9.442-9.442-21.998-14.643-35.355-14.643    C399.378,56.001,391.894,57.737,385.1,61.061z"
                id="XMLID_3180_" />
            <path
                d="M89.596,471.539c-14.168,0-27.495-5.524-37.526-15.555c-10.03-10.031-15.554-23.358-15.554-37.525    c0-14.186,5.524-27.517,15.556-37.537c10.023-10.022,23.35-15.543,37.524-15.543c14.191,0,27.523,5.522,37.538,15.547    c10.021,10.01,15.542,23.341,15.542,37.533c0,14.174-5.52,27.501-15.544,37.525C117.113,466.014,103.782,471.539,89.596,471.539z     M89.596,375.378c-11.503,0-22.319,4.48-30.455,12.615c-8.142,8.134-12.625,18.953-12.625,30.465    c0,11.496,4.484,22.313,12.625,30.455c8.142,8.142,18.958,12.625,30.455,12.625c11.512,0,22.331-4.483,30.462-12.623    c8.137-8.138,12.618-18.954,12.618-30.457c0-11.519-4.479-22.337-12.614-30.463C111.933,379.858,101.115,375.378,89.596,375.378z"
                id="XMLID_3177_" />
            <path
                d="M55.583,389.455c-0.966,0-1.941-0.281-2.8-0.869c-0.753-0.516-7.375-5.264-7.888-13.156    c-0.347-5.327,2.136-10.407,7.377-15.098c2.058-1.841,5.218-1.665,7.06,0.393c1.841,2.058,1.666,5.219-0.392,7.06    c-1.937,1.733-4.215,4.347-4.069,6.955c0.174,3.103,3.559,5.592,3.593,5.616c2.236,1.59,2.794,4.698,1.224,6.949    C58.714,388.702,57.162,389.455,55.583,389.455z"
                id="XMLID_1874_" />
            <path
                d="M89.591,375.379c-2.359,0-4.459-1.678-4.909-4.081c-0.168-0.897-1.49-8.938,3.73-14.883    c3.523-4.012,8.867-5.849,15.892-5.459c2.757,0.152,4.868,2.512,4.715,5.27c-0.153,2.756-2.514,4.883-5.269,4.715    c-2.611-0.145-6.089,0.097-7.824,2.073c-2.034,2.315-1.422,6.404-1.415,6.444c0.508,2.715-1.281,5.327-3.995,5.835    C90.205,375.351,89.896,375.379,89.591,375.379z"
                id="XMLID_1873_" />
            <path
                d="M123.592,389.459c-0.973,0-1.956-0.282-2.819-0.873c-2.279-1.56-2.863-4.671-1.303-6.95    c0.515-0.754,5.264-7.375,13.156-7.889c5.333-0.332,10.407,2.136,15.097,7.378c1.841,2.058,1.666,5.219-0.392,7.061    c-2.058,1.84-5.219,1.666-7.06-0.393c-1.745-1.948-4.368-4.224-6.996-4.066c-3.072,0.199-5.529,3.522-5.552,3.556    C126.755,388.698,125.187,389.459,123.592,389.459z"
                id="XMLID_1872_" />
            <path
                d="M152.111,437.878c-0.093,0-0.187-0.002-0.281-0.008c-2.757-0.152-4.868-2.512-4.715-5.27    c0.144-2.594-0.093-6.052-2.041-7.792c-2.317-2.07-6.473-1.436-6.516-1.429c-2.704,0.454-5.298-1.346-5.78-4.047    c-0.482-2.701,1.279-5.283,3.976-5.789c0.898-0.167,8.939-1.495,14.885,3.722c4.012,3.522,5.849,8.867,5.46,15.89    C156.951,435.818,154.745,437.878,152.111,437.878z"
                id="XMLID_1871_" />
            <path
                d="M123.598,477.848c-1.373,0-2.74-0.563-3.728-1.666c-1.841-2.058-1.666-5.219,0.392-7.061    c1.949-1.744,4.237-4.373,4.066-6.994c-0.2-3.072-3.522-5.529-3.556-5.552c-2.279-1.56-2.863-4.671-1.303-6.95    c1.559-2.28,4.67-2.863,6.95-1.304c0.753,0.516,7.375,5.265,7.888,13.156c0.347,5.327-2.136,10.406-7.378,15.097    C125.976,477.428,124.785,477.848,123.598,477.848z"
                id="XMLID_1870_" />
            <path
                d="M76.702,486.001c-0.588,0-1.188-0.017-1.802-0.051c-2.757-0.152-4.869-2.511-4.716-5.268    c0.152-2.758,2.514-4.883,5.269-4.716c2.599,0.145,6.055-0.095,7.795-2.043c2.069-2.316,1.435-6.458,1.428-6.499    c-0.047-0.276-0.079-0.605-0.079-0.886c0-2.762,2.239-5.005,5-5.005c2.526,0,4.615,1.87,4.953,4.303    c0.254,1.561,1.157,9.064-3.77,14.666C87.566,484.156,82.836,486.001,76.702,486.001z"
                id="XMLID_1869_" />
            <path
                d="M45.6,463.192c-4.972,0-9.717-2.488-14.12-7.409c-1.841-2.058-1.666-5.219,0.392-7.061    c2.058-1.841,5.219-1.665,7.06,0.393c1.745,1.949,4.373,4.229,6.996,4.066c3.072-0.199,5.529-3.522,5.552-3.556    c1.558-2.28,4.67-2.863,6.95-1.304c2.279,1.56,2.863,4.671,1.303,6.95c-0.515,0.754-5.264,7.375-13.156,7.889    C46.251,463.181,45.925,463.192,45.6,463.192z"
                id="XMLID_1868_" />
            <path
                d="M39.115,423.645c-3.095,0-7.743-0.663-11.544-3.997c-4.016-3.522-5.855-8.871-5.467-15.896    c0.152-2.758,2.532-4.881,5.268-4.716c2.757,0.152,4.869,2.511,4.716,5.268c-0.143,2.595,0.095,6.054,2.045,7.797    c2.317,2.072,6.453,1.44,6.495,1.436c0.274-0.047,0.609-0.08,0.888-0.08c2.761,0,5.005,2.238,5.005,5    c0,2.524-1.866,4.611-4.295,4.951C41.719,423.494,40.594,423.645,39.115,423.645z"
                id="XMLID_1867_" />
            <path
                d="M72.612,440.442c-1.393,0-2.777-0.577-3.765-1.706c-1.814-2.075-1.612-5.224,0.459-7.043    c5.552-4.879,16.857-10.995,24.02-2.975c0.035,0.039,0.077,0.086,0.377,0.102c3.059,0.177,9.461-4.123,12.936-7.274    c2.044-1.855,5.207-1.7,7.063,0.345c1.855,2.046,1.701,5.208-0.345,7.063c-1.898,1.722-11.778,10.337-20.175,9.853    c-2.915-0.151-5.442-1.336-7.31-3.423c-1.602-1.791-7.342,1.543-9.973,3.83C74.95,440.038,73.778,440.442,72.612,440.442z"
                id="XMLID_1866_" />
            <path
                d="M85.446,411.252c-1.203,0-2.27-0.194-3.153-0.45c-6.798-1.97-10.46-9.824-10.855-10.714    c-1.121-2.523,0.015-5.478,2.538-6.6c2.518-1.119,5.464,0.011,6.592,2.522c0.857,1.882,2.902,4.729,4.515,5.189    c0.209,0.06,0.695,0.196,1.737-0.5c2.296-1.533,5.401-0.914,6.935,1.384c1.533,2.297,0.914,5.401-1.383,6.934    C89.833,410.712,87.45,411.252,85.446,411.252z"
                id="XMLID_1865_" />
            <path
                d="M112.056,160.999c-22.056,0-40-17.944-40-40s17.944-40,40-40s40,17.944,40,40    S134.113,160.999,112.056,160.999z M112.056,90.999c-16.542,0-30,13.458-30,30s13.458,30,30,30s30-13.458,30-30    S128.598,90.999,112.056,90.999z"
                id="XMLID_6_" />
            <path
                d="M437.056,435.999c-16.542,0-30-13.458-30-30c0-16.542,13.458-30,30-30c16.542,0,30,13.458,30,30    C467.056,422.541,453.598,435.999,437.056,435.999z M437.056,385.999c-11.028,0-20,8.972-20,20c0,11.028,8.972,20,20,20    s20-8.972,20-20C457.056,394.97,448.084,385.999,437.056,385.999z"
                id="XMLID_3_" />
        </g>
    </g>
    <g id="Layer_1" />
</svg>